<svg width="25" height="24" viewBox="0 0 25 24" fill="none" xmlns="http://www.w3.org/2000/svg">
<path d="M18.3681 21.87C18.0581 21.87 17.7481 21.79 17.4681 21.62L13.4581 19.24C13.0381 19.23 12.6181 19.2 12.2181 19.14C11.9481 19.1 11.7181 18.92 11.6181 18.66C11.5181 18.4 11.5681 18.12 11.7481 17.91C12.4081 17.14 12.7481 16.22 12.7481 15.24C12.7481 12.82 10.6181 10.85 7.99812 10.85C7.01812 10.85 6.07812 11.12 5.28812 11.64C5.06812 11.78 4.79812 11.8 4.55812 11.69C4.32812 11.58 4.15813 11.36 4.12813 11.1C4.09813 10.82 4.07812 10.54 4.07812 10.25C4.07812 5.29 8.37813 1.26001 13.6581 1.26001C18.9381 1.26001 23.2381 5.29 23.2381 10.25C23.2381 12.97 21.9781 15.47 19.7581 17.18L20.0981 19.9C20.1781 20.58 19.8781 21.22 19.3081 21.59C19.0281 21.77 18.6981 21.87 18.3681 21.87ZM13.6481 17.73C13.7881 17.72 13.9281 17.76 14.0481 17.84L18.2381 20.33C18.3481 20.4 18.4381 20.37 18.4981 20.33C18.5481 20.3 18.6281 20.22 18.6081 20.08L18.2181 16.92C18.1881 16.64 18.3081 16.37 18.5281 16.21C20.5681 14.78 21.7381 12.6 21.7381 10.23C21.7381 6.09998 18.1181 2.73999 13.6581 2.73999C9.36813 2.73999 5.84812 5.86003 5.58812 9.78003C6.33812 9.49003 7.14813 9.33002 7.98813 9.33002C11.4381 9.33002 14.2381 11.97 14.2381 15.22C14.2481 16.1 14.0381 16.95 13.6481 17.73Z" fill="#292D32"/>
<path d="M5.07782 22.7501C4.81782 22.7501 4.56781 22.6801 4.33781 22.5301C3.88781 22.2401 3.64782 21.7401 3.70782 21.2101L3.90782 19.67C2.55782 18.57 1.75781 16.94 1.75781 15.23C1.75781 13.28 2.77782 11.4601 4.48782 10.3701C5.51782 9.70006 6.73781 9.34009 8.00781 9.34009C11.4578 9.34009 14.2578 11.98 14.2578 15.23C14.2578 16.55 13.7778 17.8501 12.8978 18.8801C11.7678 20.2501 10.0778 21.05 8.21782 21.11L5.77782 22.5601C5.55782 22.6901 5.31782 22.7501 5.07782 22.7501ZM7.99782 10.8401C7.01782 10.8401 6.07781 11.1101 5.28781 11.6301C4.00781 12.4501 3.24782 13.79 3.24782 15.23C3.24782 16.62 3.92782 17.8901 5.12782 18.7101C5.35782 18.8701 5.47781 19.14 5.44781 19.42L5.22781 21.1301L7.61781 19.7101C7.73781 19.6401 7.86782 19.6 7.99782 19.6C9.46782 19.6 10.8578 18.9701 11.7378 17.9001C12.3978 17.1201 12.7478 16.2 12.7478 15.22C12.7478 12.81 10.6178 10.8401 7.99782 10.8401Z" fill="#292D32"/>
</svg>
